<svg width="100" height="100" viewBox="0 0 100 100" fill="none" xmlns="http://www.w3.org/2000/svg">
<path d="M8.33984 51.0352V55.1953C8.33984 57.5 10.2148 59.3555 12.5 59.3555H20.8398C23.1445 59.3555 25 57.4805 25 55.1953V51.0352C25 48.7305 23.125 46.875 20.8398 46.875H12.5C10.1953 46.875 8.33984 48.75 8.33984 51.0352ZM20.8398 55.2148H12.5V51.0547H20.8398V55.2148Z" fill="#070707"/>
<path d="M35.4102 59.375H64.5703C66.875 59.375 68.7305 57.5 68.7305 55.2148V51.0547C68.7305 48.75 66.8555 46.8945 64.5703 46.8945H35.4102C33.1055 46.8945 31.25 48.7695 31.25 51.0547V55.2148C31.25 57.5 33.125 59.375 35.4102 59.375ZM60.4102 51.0352H64.5703V55.1953H60.4102V51.0352ZM52.0898 51.0352H56.25V55.1953H52.0898V51.0352ZM43.75 51.0352H47.9102V55.1953H43.75V51.0352ZM35.4102 51.0352H39.5703V55.1953H35.4102V51.0352Z" fill="#070707"/>
<path d="M79.1602 59.375H87.5C89.8047 59.375 91.6602 57.5 91.6602 55.2148V51.0547C91.6602 48.75 89.7852 46.8945 87.5 46.8945H79.1602C76.8555 46.8945 75 48.7695 75 51.0547V55.2148C75 57.5 76.875 59.375 79.1602 59.375ZM79.1602 51.0352H87.5V55.1953H79.1602V51.0352Z" fill="#070707"/>
<path d="M80.4297 19.7852L80.332 19.5312L78.9844 16.0352C77.4219 12.0312 73.5742 9.375 69.2578 9.375H41.6602H37.5H30.7227C26.4258 9.39453 22.5586 12.0312 20.9961 16.0352L16.3477 28.125H10.4102C6.97266 28.1445 4.17969 30.9375 4.16016 34.375C4.16016 36.6797 5.44922 38.7891 7.5 39.8633L3.90625 42.7539C1.42578 44.7266 0 47.7148 0 50.8789V69.7852C0.0195313 73.5742 2.57813 76.875 6.25 77.832V84.375C6.25 87.832 9.04297 90.625 12.5 90.625H20.8398C24.2969 90.625 27.0898 87.832 27.0898 84.375V78.125H72.9297V84.375C72.9297 87.832 75.7227 90.625 79.1797 90.625H87.5C90.957 90.625 93.75 87.832 93.75 84.375V77.832C97.4219 76.8945 99.9805 73.5742 100 69.7852V50.8789C100 47.7148 98.5742 44.7266 96.0938 42.7539L92.5 39.8633C94.5508 38.7891 95.8203 36.6797 95.8398 34.375C95.8203 30.9375 93.0273 28.1445 89.5898 28.125H83.6523L82.1094 24.1406L80.4297 19.7852ZM8.96484 32.8906C9.33594 32.5 9.86328 32.2852 10.4102 32.2852H14.7461L13.1445 36.4453H10.4102C9.25781 36.4453 8.32031 35.5078 8.32031 34.3555C8.33984 33.8086 8.55469 33.2812 8.96484 32.8906ZM22.9102 84.375C22.9102 85.5273 21.9727 86.4648 20.8203 86.4648H12.5C11.3477 86.4648 10.4102 85.5273 10.4102 84.375V78.125H22.9102V84.375ZM33.3398 73.9648H8.33984C6.03516 73.9648 4.17969 72.0898 4.17969 69.8047V67.7148H33.3398V73.9648ZM62.5 73.9648H37.5V67.7148H62.5V73.9648ZM89.5898 84.375C89.5898 85.5273 88.6523 86.4648 87.5 86.4648H79.1602C78.0078 86.4648 77.0703 85.5273 77.0703 84.375V78.125H89.5703V84.375H89.5898ZM95.8398 69.7852C95.8398 72.0898 93.9648 73.9453 91.6797 73.9453H66.6797V67.6953H95.8398V69.7852ZM89.5898 32.2852C90.1563 32.2852 90.6836 32.5195 91.0742 32.9297C91.4648 33.3008 91.6797 33.8281 91.6797 34.375C91.6797 35.5273 90.7422 36.4648 89.5898 36.4648H86.8555L85.2539 32.3047L89.5898 32.2852ZM86.0352 40.625C86.5039 40.625 86.9727 40.7813 87.3438 41.0742L93.4961 45.9961C94.9805 47.1875 95.8398 48.9844 95.8398 50.8789V63.5352H4.16016V50.8789C4.16016 48.9844 5.01953 47.1875 6.50391 45.9961L12.6563 41.0742C13.0273 40.7813 13.4766 40.625 13.9453 40.625H86.0352ZM17.6172 36.4648L24.8828 17.5586C25.8203 15.1563 28.125 13.5547 30.7227 13.5547H69.2773C71.8555 13.5742 74.1797 15.1563 75.1172 17.5586L82.3828 36.4648H17.6172Z" fill="#070707"/>
</svg>
