<svg width="48" height="48" viewBox="0 0 48 48" fill="none" xmlns="http://www.w3.org/2000/svg">
<circle cx="24" cy="24" r="23.5" fill="white" stroke="#070707"/>
<path d="M34.201 15.8239C34.1994 15.7189 34.1654 15.6169 34.1037 15.5319C34.042 15.4469 33.9556 15.383 33.8562 15.3489L24.1513 12.0288C24.044 11.9904 23.9267 11.9904 23.8193 12.0288L14.1144 15.3489C14.0151 15.383 13.9287 15.4469 13.867 15.5319C13.8053 15.6169 13.7713 15.7189 13.7696 15.8239L13.7441 17.3307C13.6675 21.9712 14.0429 25.3015 14.8959 27.5158C15.5355 29.183 16.5 30.7066 17.7333 31.9979C19.2087 33.4984 20.9571 34.7033 22.8846 35.5479L23.7734 35.9539C23.8399 35.9843 23.9122 36 23.9853 36C24.0585 36 24.1308 35.9843 24.1973 35.9539L25.0861 35.5479C27.0135 34.7033 28.7619 33.4984 30.2373 31.9979C31.4719 30.706 32.4372 29.1816 33.0773 27.5132C33.9303 25.299 34.3057 21.9687 34.2291 17.3282L34.201 15.8239ZM32.1247 27.1455C31.5337 28.6886 30.6412 30.0986 29.4992 31.293C28.1124 32.6958 26.4719 33.8225 24.6647 34.6131L23.9853 34.9273L23.306 34.6182C21.4988 33.8276 19.8582 32.7009 18.4714 31.2981C17.3289 30.1022 16.4364 28.6905 15.846 27.1455C15.0466 25.0564 14.6865 21.8512 14.7631 17.3563L14.781 16.207L23.9853 13.0427L33.1794 16.1968L33.1973 17.3461C33.2842 21.8512 32.9241 25.0564 32.1247 27.1455Z" fill="#070707"/>
<path d="M31.6471 17.6115C31.6459 17.506 31.6122 17.4035 31.5505 17.318C31.4887 17.2325 31.402 17.1682 31.3023 17.1339L24.1513 14.6822C24.0435 14.6463 23.9271 14.6463 23.8193 14.6822L16.6683 17.1339C16.5686 17.1682 16.4819 17.2325 16.4202 17.318C16.3584 17.4035 16.3247 17.506 16.3235 17.6115V17.66C16.2546 21.7105 16.5789 24.7957 17.271 26.5834C17.7772 27.9084 18.5431 29.1188 19.5236 30.1436C20.7325 31.3724 22.1644 32.3596 23.7427 33.0525L23.7733 33.0653C23.8392 33.0978 23.9118 33.1144 23.9853 33.1138C24.0584 33.1138 24.1307 33.0982 24.1973 33.0678L24.2279 33.0525C25.8072 32.3632 27.2408 31.3795 28.4521 30.1538C29.4327 29.129 30.1985 27.9186 30.7047 26.5936C31.3917 24.8059 31.7262 21.7208 31.6522 17.6728L31.6471 17.6115ZM29.7444 26.2182C29.2842 27.4161 28.5896 28.5101 27.7013 29.4362C26.6329 30.5244 25.3732 31.4066 23.9853 32.0386C22.5936 31.411 21.3296 30.5323 20.2566 29.4464C19.3682 28.5203 18.6736 27.4263 18.2134 26.2284C17.6005 24.6041 17.2889 21.7642 17.3451 17.9946L23.9853 15.7165L30.6255 17.9946C30.6817 21.7616 30.3701 24.6041 29.7495 26.2284L29.7444 26.2182Z" fill="#070707"/>
<path d="M26.3834 21.5266L22.7415 25.1685L21.5872 24.0142C21.5397 23.9667 21.4834 23.9291 21.4214 23.9034C21.3594 23.8777 21.2929 23.8645 21.2258 23.8645C21.1587 23.8645 21.0922 23.8777 21.0302 23.9034C20.9682 23.9291 20.9119 23.9667 20.8644 24.0142C20.817 24.0616 20.7793 24.118 20.7536 24.18C20.7279 24.242 20.7147 24.3084 20.7147 24.3755C20.7147 24.4427 20.7279 24.5091 20.7536 24.5711C20.7793 24.6331 20.817 24.6895 20.8644 24.7369L22.3789 26.2514C22.4264 26.2992 22.4829 26.3371 22.5452 26.363C22.6074 26.3888 22.6741 26.4021 22.7415 26.4021C22.8768 26.4015 23.0063 26.3473 23.1016 26.2514L27.1062 22.2494C27.1537 22.2019 27.1913 22.1456 27.217 22.0836C27.2427 22.0216 27.2559 21.9551 27.2559 21.888C27.2559 21.8209 27.2427 21.7544 27.217 21.6924C27.1913 21.6304 27.1537 21.5741 27.1062 21.5266C27.0587 21.4792 27.0024 21.4415 26.9404 21.4159C26.8784 21.3902 26.8119 21.377 26.7448 21.377C26.6777 21.377 26.6112 21.3902 26.5492 21.4159C26.4872 21.4415 26.4309 21.4792 26.3834 21.5266Z" fill="#070707"/>
</svg>
