<svg width="100" height="100" viewBox="0 0 100 100" fill="none" xmlns="http://www.w3.org/2000/svg">
<path d="M71.3086 0H28.6914C24.4727 0 21.0352 3.4375 21.0352 7.65625V92.3438C21.0352 96.5625 24.4727 100 28.6914 100H71.3281C75.5469 100 78.9844 96.5625 78.9844 92.3438V7.65625C78.9648 3.4375 75.5469 0 71.3086 0ZM24.707 82.5586H28.6719C29.6875 82.5586 30.5078 81.7383 30.5078 80.7227C30.5078 79.707 29.6875 78.8867 28.6719 78.8867H24.707V15.3125H75.293V78.8867H34.4922C33.4766 78.8867 32.6562 79.707 32.6562 80.7227C32.6562 81.7383 33.4766 82.5586 34.4922 82.5586H75.293V92.3438C75.293 94.5312 73.5156 96.3086 71.3281 96.3086H28.6914C26.5039 96.3086 24.7266 94.5312 24.7266 92.3438V82.5586H24.707ZM28.6914 3.69141H71.3281C73.5156 3.69141 75.293 5.46875 75.293 7.65625V11.6211H24.707V7.65625C24.707 5.46875 26.4844 3.69141 28.6914 3.69141Z" fill="#070707"/>
<path d="M50 9.49219H55.8203C56.8359 9.49219 57.6563 8.67188 57.6563 7.65625C57.6563 6.64063 56.8359 5.82031 55.8203 5.82031H50C48.9844 5.82031 48.1641 6.64063 48.1641 7.65625C48.1641 8.67188 48.9844 9.49219 50 9.49219Z" fill="#070707"/>
<path d="M50 94.1797C52.6172 94.1797 54.7461 92.0508 54.7461 89.4336C54.7461 86.8164 52.6172 84.6875 50 84.6875C47.3828 84.6875 45.2539 86.8164 45.2539 89.4336C45.2539 92.0508 47.3828 94.1797 50 94.1797ZM50 88.3789C50.5859 88.3789 51.0742 88.8477 51.0742 89.4531C51.0742 90.0586 50.6055 90.5273 50 90.5273C49.4141 90.5273 48.9258 90.0586 48.9258 89.4531C48.9258 88.8477 49.4141 88.3789 50 88.3789Z" fill="#070707"/>
<path d="M44.1797 9.49219C45.1936 9.49219 46.0156 8.67021 46.0156 7.65625C46.0156 6.64229 45.1936 5.82031 44.1797 5.82031C43.1657 5.82031 42.3438 6.64229 42.3438 7.65625C42.3438 8.67021 43.1657 9.49219 44.1797 9.49219Z" fill="#070707"/>
</svg>
