<svg width="48" height="48" viewBox="0 0 48 48" fill="none" xmlns="http://www.w3.org/2000/svg">
<circle cx="24" cy="24" r="23.5" fill="white" stroke="#070707"/>
<g clip-path="url(#clip0_2_665)">
<path d="M19.1048 21.7936C19.0177 21.7064 18.8967 21.6562 18.7734 21.6562C18.6502 21.6562 18.5293 21.7064 18.442 21.7936C18.3548 21.8808 18.3047 22.0017 18.3047 22.125C18.3047 22.2483 18.3548 22.3692 18.442 22.4564C18.5292 22.5435 18.6502 22.5937 18.7734 22.5937C18.8967 22.5937 19.0177 22.5436 19.1048 22.4564C19.192 22.3692 19.2422 22.2483 19.2422 22.125C19.2422 22.0017 19.192 21.8808 19.1048 21.7936Z" fill="#070707"/>
<path d="M34.5936 12H15.9375C15.1621 12 14.5312 12.6308 14.5312 13.4062V21.1875C14.5312 21.9629 15.1621 22.5937 15.9375 22.5937H16.7812C17.0401 22.5937 17.25 22.3838 17.25 22.125C17.25 21.8661 17.0401 21.6562 16.7812 21.6562H15.9375C15.679 21.6562 15.4687 21.4459 15.4687 21.1875V13.4062C15.4687 13.1478 15.679 12.9375 15.9375 12.9375H34.5936C34.8521 12.9375 35.0624 13.1478 35.0624 13.4062V21.1875C35.0624 21.4459 34.8521 21.6562 34.5936 21.6562H31.4583C31.334 21.6562 31.2148 21.7056 31.1269 21.7935L29.5833 23.337L28.0398 21.7935C27.9519 21.7056 27.8327 21.6562 27.7083 21.6562H24.0528C24.0184 21.5677 23.9794 21.4804 23.9353 21.3947C23.5997 20.7426 23.0284 20.266 22.3267 20.0527L21.649 19.8467C21.4104 19.774 21.1567 19.9011 21.0719 20.1356L20.007 23.0789C19.7116 23.8952 19.1291 24.5734 18.3667 24.9885L17.3671 25.5329C17.1214 25.2346 16.7494 25.0442 16.3338 25.0442H13.3385C12.6005 25.0442 12.0001 25.6446 12.0001 26.3826V34.6614C12 35.3995 12.6004 35.9999 13.3384 35.9999H16.3337C16.8003 35.9999 17.2117 35.7598 17.4513 35.3967L17.9296 35.5843C18.6328 35.8602 19.3725 36 20.1279 36H26.4527C27.4016 36 28.1737 35.228 28.1737 34.279C28.1737 33.9649 28.0887 33.6704 27.9411 33.4167C28.6392 33.1973 29.1471 32.5441 29.1471 31.7745C29.1471 31.4524 29.058 31.1508 28.9034 30.8928C29.5718 30.6563 30.0521 30.0183 30.0521 29.2699C30.0521 28.4904 29.5309 27.8306 28.8189 27.6198C28.9637 27.3678 29.0469 27.0762 29.0469 26.7653C29.0469 25.8164 28.2749 25.0443 27.3259 25.0443H23.5671L24.0928 23.4836C24.191 23.1919 24.2375 22.8919 24.2344 22.5938H27.5142L29.2519 24.3315C29.3434 24.423 29.4634 24.4687 29.5833 24.4687C29.7033 24.4687 29.8233 24.423 29.9148 24.3315L31.6525 22.5937H34.5936C35.369 22.5937 35.9999 21.9629 35.9999 21.1875V13.4062C35.9999 12.6308 35.369 12 34.5936 12ZM16.7347 34.6615C16.7346 34.8826 16.5548 35.0624 16.3337 35.0624H13.3384C13.1174 35.0624 12.9376 34.8826 12.9376 34.6615V26.3826C12.9376 26.1616 13.1174 25.9817 13.3384 25.9817H14.3673V31.753C14.3673 32.0118 14.5772 32.2217 14.8361 32.2217C15.095 32.2217 15.3048 32.0118 15.3048 31.753V25.9817H16.3337C16.5088 25.9817 16.6577 26.0947 16.7122 26.2515C16.7161 26.2742 16.7217 26.2967 16.7291 26.3189C16.7324 26.3398 16.7347 26.3609 16.7347 26.3826V34.6615ZM27.326 25.9817V25.9817C27.758 25.9817 28.1095 26.3332 28.1095 26.7652C28.1095 27.1973 27.758 27.5488 27.326 27.5488H24.783C24.5241 27.5488 24.3142 27.7587 24.3142 28.0175C24.3142 28.2764 24.5241 28.4863 24.783 28.4863L28.3311 28.4864C28.7632 28.4864 29.1146 28.8379 29.1146 29.2699C29.1146 29.7019 28.7632 30.0535 28.3311 30.0535H24.783C24.5241 30.0535 24.3142 30.2634 24.3142 30.5222C24.3142 30.7811 24.5241 30.991 24.783 30.991H27.4262C27.8582 30.991 28.2097 31.3424 28.2097 31.7745C28.2097 32.2065 27.8582 32.558 27.4262 32.558H24.783C24.5241 32.558 24.3142 32.7679 24.3142 33.0267C24.3142 33.2856 24.5241 33.4955 24.783 33.4955H26.4527C26.8848 33.4955 27.2362 33.847 27.2362 34.279C27.2362 34.7111 26.8848 35.0625 26.4527 35.0625H20.1279C19.4901 35.0625 18.8656 34.9444 18.2719 34.7116L17.6721 34.4764V26.4342L18.815 25.8119C19.7788 25.2871 20.5151 24.4298 20.8885 23.3978L21.802 20.8731L22.054 20.9497C22.511 21.0887 22.8831 21.3991 23.1018 21.8237C23.3204 22.2484 23.3568 22.7317 23.2043 23.1843L22.4704 25.3633C22.4222 25.5064 22.4459 25.6639 22.5339 25.7864C22.622 25.909 22.7637 25.9817 22.9146 25.9817H27.326Z" fill="#070707"/>
<path d="M33.854 16.5456C33.7653 16.2726 33.5336 16.0774 33.2495 16.0362L32.4203 15.916L32.0493 15.1648C31.9222 14.9074 31.665 14.7476 31.3779 14.7476H31.3777C31.0906 14.7477 30.8334 14.9076 30.7064 15.1651L30.3358 15.9165L29.5067 16.0372C29.2226 16.0786 28.991 16.2739 28.9024 16.547C28.8137 16.8201 28.8864 17.1142 29.0921 17.3146L29.6922 17.8992L29.5507 18.725C29.5023 19.0081 29.6165 19.2886 29.8488 19.4574C29.9801 19.5526 30.1335 19.601 30.2881 19.601C30.4072 19.601 30.5269 19.5723 30.6375 19.5141L31.379 19.124L32.1207 19.5137C32.3749 19.6472 32.677 19.6253 32.9093 19.4565C33.1415 19.2876 33.2555 19.007 33.2069 18.724L33.0651 17.8983L33.665 17.3133C33.8703 17.1128 33.9428 16.8186 33.854 16.5456ZM32.3394 17.2964C32.1629 17.4685 32.0825 17.7163 32.1242 17.9593L32.2181 18.5059L31.7269 18.2478C31.5087 18.1334 31.2482 18.1334 31.0302 18.2481L30.5392 18.5064L30.6329 17.9597C30.6745 17.7167 30.5939 17.4689 30.4173 17.2969L30.02 16.9098L30.5689 16.8299C30.8129 16.7944 31.0236 16.6412 31.1326 16.4201L31.378 15.9227L31.6236 16.42C31.7328 16.641 31.9436 16.7941 32.1875 16.8295L32.7365 16.909L32.3394 17.2964Z" fill="#070707"/>
<path d="M27.8892 16.5456C27.8004 16.2726 27.5688 16.0774 27.2846 16.0362L26.4555 15.916L26.0845 15.1648C25.9573 14.9074 25.7001 14.7476 25.4131 14.7476H25.4129C25.1258 14.7477 24.8685 14.9076 24.7415 15.1652L24.371 15.9165L23.5418 16.0372C23.2577 16.0786 23.0262 16.2739 22.9375 16.547C22.8489 16.8201 22.9215 17.1142 23.1272 17.3146L23.7273 17.8992L23.5859 18.725C23.5374 19.0081 23.6517 19.2887 23.884 19.4574C24.0152 19.5526 24.1687 19.601 24.3232 19.601C24.4423 19.601 24.562 19.5723 24.6726 19.5141L25.4141 19.124L26.1558 19.5137C26.41 19.6472 26.7121 19.6253 26.9444 19.4565C27.1766 19.2876 27.2907 19.007 27.242 18.724L27.1002 17.8983L27.7001 17.3133C27.9055 17.1128 27.978 16.8187 27.8892 16.5456ZM26.3745 17.2964C26.1981 17.4685 26.1177 17.7163 26.1594 17.9593L26.2533 18.5059L25.7621 18.2479C25.5438 18.1333 25.2833 18.1334 25.0653 18.2481L24.5744 18.5064L24.668 17.9597C24.7096 17.7167 24.629 17.4689 24.4524 17.2969L24.0551 16.9098L24.604 16.8299C24.8479 16.7944 25.0586 16.6413 25.1677 16.4201L25.4131 15.9226L25.6587 16.4199C25.7678 16.641 25.9786 16.7941 26.2226 16.8295L26.7716 16.909L26.3745 17.2964Z" fill="#070707"/>
<path d="M21.9264 16.5456C21.8375 16.2726 21.6059 16.0774 21.3218 16.0362L20.4926 15.916L20.1216 15.1648C19.9945 14.9074 19.7373 14.7476 19.4502 14.7476H19.45C19.1629 14.7477 18.9056 14.9076 18.7787 15.1652L18.4081 15.9165L17.579 16.0372C17.2948 16.0786 17.0633 16.274 16.9746 16.5471C16.886 16.8201 16.9587 17.1143 17.1643 17.3146L17.7644 17.8992L17.623 18.725C17.5745 19.0081 17.6888 19.2887 17.9211 19.4574C18.0523 19.5526 18.2058 19.601 18.3603 19.601C18.4794 19.601 18.5991 19.5723 18.7097 19.5141L19.4512 19.124L20.1929 19.5137C20.447 19.6472 20.7492 19.6253 20.9814 19.4565C21.2137 19.2876 21.3277 19.007 21.2791 18.724L21.1373 17.8983L21.7371 17.3133C21.9427 17.1128 22.0151 16.8187 21.9264 16.5456ZM20.4117 17.2964C20.2352 17.4685 20.1548 17.7163 20.1965 17.9593L20.2904 18.5059L19.7992 18.2479C19.581 18.1333 19.3204 18.1334 19.1024 18.2481L18.6115 18.5064L18.7052 17.9596C18.7467 17.7166 18.6661 17.4689 18.4896 17.2969L18.0922 16.9098L18.6411 16.8299C18.8851 16.7944 19.0958 16.6413 19.2049 16.4201L19.4502 15.9226L19.6958 16.4199C19.8049 16.641 20.0158 16.7941 20.2598 16.8295L20.8088 16.909L20.4117 17.2964Z" fill="#070707"/>
<path d="M14.8361 32.9697C14.5772 32.9697 14.3673 33.1796 14.3673 33.4385V33.4458C14.3673 33.7046 14.5772 33.9145 14.8361 33.9145C15.0949 33.9145 15.3048 33.7046 15.3048 33.4458V33.4385C15.3048 33.1796 15.0949 32.9697 14.8361 32.9697Z" fill="#070707"/>
</g>
<defs>
<clipPath id="clip0_2_665">
<rect width="24" height="24" fill="white" transform="translate(12 12)"/>
</clipPath>
</defs>
</svg>
