<svg width="48" height="48" viewBox="0 0 48 48" fill="none" xmlns="http://www.w3.org/2000/svg">
<circle cx="24" cy="24" r="23.5" fill="white" stroke="#070707"/>
<path d="M35.6986 16.3451L30.8986 14.4251C30.784 14.3791 30.656 14.3791 30.5414 14.4251L25.7414 16.3451C25.6525 16.3807 25.5762 16.4422 25.5225 16.5216C25.4687 16.601 25.44 16.6947 25.44 16.7905V21.7518C25.4425 22.6634 25.6797 23.559 26.1288 24.3523C26.5779 25.1456 27.2238 25.8099 28.0042 26.2811L30.4733 27.7624C30.5478 27.807 30.6331 27.8306 30.72 27.8306C30.8069 27.8306 30.8922 27.807 30.9667 27.7624L33.12 26.4702V31.8462C33.1197 32.0549 33.0367 32.255 32.8892 32.4025C32.7416 32.5501 32.5415 32.6331 32.3328 32.6334H13.7472C13.5385 32.6331 13.3384 32.5501 13.1908 32.4025C13.0433 32.255 12.9603 32.0549 12.96 31.8462V21.1105H24C24.1273 21.1105 24.2494 21.0599 24.3394 20.9699C24.4294 20.8799 24.48 20.7578 24.48 20.6305C24.48 20.5032 24.4294 20.3811 24.3394 20.2911C24.2494 20.2011 24.1273 20.1505 24 20.1505H12.96V19.0177C12.9603 18.809 13.0433 18.6089 13.1908 18.4614C13.3384 18.3138 13.5385 18.2308 13.7472 18.2305H24C24.1273 18.2305 24.2494 18.1799 24.3394 18.0899C24.4294 17.9999 24.48 17.8778 24.48 17.7505C24.48 17.6232 24.4294 17.5011 24.3394 17.4111C24.2494 17.3211 24.1273 17.2705 24 17.2705H13.7472C13.2839 17.2708 12.8396 17.4549 12.512 17.7825C12.1844 18.1101 12.0003 18.5544 12 19.0177V31.8433C12.0003 32.3066 12.1844 32.7509 12.512 33.0785C12.8396 33.4061 13.2839 33.5903 13.7472 33.5905H32.3328C32.7961 33.5903 33.2404 33.4061 33.568 33.0785C33.8956 32.7509 34.0797 32.3066 34.08 31.8433V25.8145C34.6779 25.3188 35.1598 24.6978 35.4915 23.9955C35.8233 23.2932 35.9969 22.5266 36 21.7499V16.7905C36 16.6947 35.9713 16.601 35.9175 16.5216C35.8638 16.4422 35.7875 16.3807 35.6986 16.3451ZM35.04 21.7518C35.038 22.4977 34.8439 23.2305 34.4763 23.8796C34.1087 24.5287 33.5801 25.0721 32.9414 25.4574L30.72 26.7908L28.4986 25.4574C27.8599 25.0721 27.3313 24.5287 26.9637 23.8796C26.5961 23.2305 26.402 22.4977 26.4 21.7518V17.115L30.72 15.387L35.04 17.115V21.7518Z" fill="#070707"/>
<path d="M29.1404 20.3732C29.0959 20.3286 29.0429 20.2932 28.9847 20.269C28.9264 20.2448 28.864 20.2323 28.8009 20.2323C28.7378 20.2323 28.6754 20.2446 28.6171 20.2687C28.5588 20.2928 28.5058 20.3282 28.4612 20.3727C28.4166 20.4173 28.3812 20.4702 28.357 20.5285C28.3328 20.5867 28.3204 20.6492 28.3203 20.7122C28.3203 20.7753 28.3326 20.8378 28.3567 20.896C28.3808 20.9543 28.4162 21.0073 28.4607 21.0519L29.7414 22.3316C29.8314 22.4216 29.9535 22.4721 30.0807 22.4721C30.208 22.4721 30.3301 22.4216 30.4201 22.3316L32.9804 19.7713C33.0704 19.6812 33.1209 19.559 33.1208 19.4316C33.1208 19.3042 33.0701 19.1821 32.9799 19.0921C32.8898 19.0021 32.7676 18.9516 32.6402 18.9517C32.5129 18.9518 32.3907 19.0024 32.3007 19.0926L30.0803 21.314L29.1404 20.3732Z" fill="#070707"/>
<path d="M15.3609 29.7505C15.2336 29.7505 15.1115 29.8011 15.0214 29.8911C14.9314 29.9811 14.8809 30.1032 14.8809 30.2305C14.8809 30.3578 14.9314 30.4799 15.0214 30.5699C15.1115 30.6599 15.2336 30.7105 15.3609 30.7105H19.2009C19.3282 30.7105 19.4503 30.6599 19.5403 30.5699C19.6303 30.4799 19.6809 30.3578 19.6809 30.2305C19.6809 30.1032 19.6303 29.9811 19.5403 29.8911C19.4503 29.8011 19.3282 29.7505 19.2009 29.7505H15.3609Z" fill="#070707"/>
</svg>
