<svg width="100" height="100" viewBox="0 0 100 100" fill="none" xmlns="http://www.w3.org/2000/svg">
<g clip-path="url(#clip0_65_341)">
<path d="M13.0158 57.8508C12.8009 57.8508 12.5861 57.8117 12.3908 57.714C11.6681 57.3625 11.3556 56.5031 11.6877 55.7609C13.9728 50.9367 13.9728 46.2687 11.6877 41.4836C11.3361 40.7609 11.6486 39.882 12.3713 39.5304C13.0939 39.1789 13.9728 39.4914 14.3244 40.214C16.9806 45.7804 16.9806 51.425 14.3244 57.0109C14.09 57.5578 13.5627 57.8508 13.0158 57.8508Z" fill="#070707"/>
<path d="M66.6389 27.1657C66.092 27.1657 65.5647 26.8532 65.3108 26.3259C63.1624 21.7751 63.1624 17.1657 65.3108 12.654C65.6624 11.9313 66.5413 11.6188 67.2639 11.9704C67.9866 12.3219 68.2991 13.2009 67.9475 13.9235C66.1702 17.6735 66.1702 21.3259 67.9475 25.0954C68.2991 25.818 67.9866 26.6969 67.2444 27.0485C67.0686 27.1266 66.8538 27.1657 66.6389 27.1657Z" fill="#070707"/>
<path d="M69.0554 34.8416C68.2546 34.8416 67.5906 34.1775 67.5906 33.3767C67.5906 32.5759 68.2546 31.9119 69.0554 31.9119C70.364 31.9119 71.4187 30.8572 71.4187 29.5486C71.4187 28.24 70.364 27.1853 69.0554 27.1853H19.6414C17.6101 27.1853 15.6765 26.3845 14.2117 24.9392C12.7468 23.4744 11.9656 21.5408 11.9656 19.5095C11.9656 15.2712 15.4031 11.8337 19.6414 11.8337H69.0554C70.364 11.8337 71.4187 10.7791 71.4187 9.47046C71.4187 8.16187 70.364 7.10718 69.0554 7.10718H19.6414C12.7859 7.10718 7.21948 12.6736 7.21948 19.5095C7.21948 22.8103 8.50854 25.9353 10.8718 28.2791C13.2156 30.6228 16.3406 31.9314 19.6414 31.9314C20.4421 31.9314 21.1062 32.5955 21.1062 33.3962C21.1062 34.197 20.4421 34.8611 19.6414 34.8611C15.5593 34.8611 11.6921 33.2595 8.80151 30.3689C5.89136 27.4587 4.30933 23.6111 4.30933 19.5291C4.30933 11.072 11.1843 4.19702 19.6609 4.19702H69.0749C72.0046 4.19702 74.3679 6.57984 74.3679 9.48999C74.3679 12.4197 71.9851 14.783 69.0749 14.783H19.6609C17.0437 14.783 14.9148 16.9119 14.9148 19.5291C14.9148 20.7986 15.4031 21.99 16.321 22.8884C17.2195 23.7869 18.4109 24.2751 19.6804 24.2751H69.0945C72.0242 24.2751 74.3874 26.658 74.3874 29.5681C74.3484 32.4587 71.9656 34.8416 69.0554 34.8416Z" fill="#070707"/>
<path d="M50.8203 50.0833H14.8633C14.0625 50.0833 13.3984 49.4192 13.3984 48.6184C13.3984 47.8176 14.0625 47.1536 14.8633 47.1536H50.8203C51.6211 47.1536 52.2852 47.8176 52.2852 48.6184C52.2852 49.4192 51.6211 50.0833 50.8203 50.0833Z" fill="#070707"/>
<path d="M38.7528 80.0442C38.3036 80.0442 37.7177 79.8684 37.0732 79.2825L37.0536 79.2629L32.9521 75.3567L28.8505 79.2629L28.831 79.2825C27.7177 80.2981 26.8193 80.0833 26.3896 79.8684C25.9599 79.6536 25.2568 79.0872 25.3544 77.6418V48.6379C25.3544 47.8372 26.0185 47.1731 26.8193 47.1731C27.62 47.1731 28.2841 47.8372 28.2841 48.6379V75.7668L31.956 72.2708C32.5224 71.7239 33.4208 71.7239 33.9872 72.2708L37.6591 75.7668L37.6786 48.6379C37.6786 47.8372 38.3427 47.1731 39.1435 47.1731C39.9443 47.1731 40.6083 47.8372 40.6083 48.6379L40.5497 77.6418C40.6474 79.0872 39.9443 79.6536 39.5146 79.8684C39.3388 79.9465 39.0849 80.0442 38.7528 80.0442Z" fill="#070707"/>
<path d="M94.8018 95.8428H8.57129C3.86426 95.8428 0.0166016 91.9951 0.0166016 87.2881V70.9795C0.0166016 66.2529 3.84472 62.4248 8.57129 62.4248H26.833C27.6338 62.4248 28.2978 63.0889 28.2978 63.8896C28.2978 64.6904 27.6338 65.3545 26.833 65.3545H8.57129C5.46582 65.3545 2.94629 67.874 2.94629 70.9795V87.2881C2.94629 90.3936 5.46582 92.9131 8.57129 92.9131H94.8018C96.0518 92.9131 97.0869 91.8975 97.0869 90.6279C97.0869 89.3779 96.0713 88.3428 94.8018 88.3428H10.8369C8.98144 88.3428 7.47754 86.8389 7.47754 84.9834V73.2256C7.47754 71.3701 8.98144 69.8662 10.8369 69.8662H26.8135C27.6143 69.8662 28.2783 70.5303 28.2783 71.3311C28.2783 72.1318 27.6143 72.7959 26.8135 72.7959H10.8369C10.6025 72.7959 10.4072 72.9912 10.4072 73.2256V84.9834C10.4072 85.2178 10.6025 85.4131 10.8369 85.4131H94.8018C97.6728 85.4131 100.017 87.7568 100.017 90.6279C99.9971 93.5186 97.6728 95.8428 94.8018 95.8428ZM94.8018 72.835H39.0986C38.2978 72.835 37.6338 72.1709 37.6338 71.3701C37.6338 70.5693 38.2978 69.9053 39.0986 69.9053H94.8018C96.0518 69.9053 97.0869 68.8897 97.0869 67.6201C97.0869 66.3701 96.0713 65.335 94.8018 65.335H39.0986C38.2978 65.335 37.6338 64.6709 37.6338 63.8701C37.6338 63.0693 38.2978 62.4053 39.0986 62.4053H94.8018C97.6728 62.4053 100.017 64.749 100.017 67.6201C99.9971 70.4912 97.6728 72.835 94.8018 72.835Z" fill="#070707"/>
<path d="M77.9951 65.3389C77.1943 65.3389 76.5303 64.6748 76.5303 63.874C76.5303 63.0732 77.1943 62.4092 77.9951 62.4092C81.1006 62.4092 83.6201 59.8896 83.6201 56.7842V40.4756C83.6201 37.3701 81.1006 34.8311 77.9951 34.8311H9.49902C8.24902 34.8311 7.21387 35.8467 7.21387 37.1162C7.21387 38.3662 8.22949 39.4014 9.49902 39.4014H75.7295C77.585 39.4014 79.0889 40.9053 79.0889 42.7607V54.5186C79.0889 56.374 77.585 57.8779 75.7295 57.8779H39.1084C38.3076 57.8779 37.6436 57.2139 37.6436 56.4131C37.6436 55.6123 38.3076 54.9482 39.1084 54.9482H75.7295C75.9639 54.9482 76.1592 54.7529 76.1592 54.5186V42.7412C76.1592 42.5068 75.9639 42.3115 75.7295 42.3115H9.49902C6.62793 42.3115 4.28418 39.9678 4.28418 37.0967C4.28418 34.2256 6.62793 31.8818 9.49902 31.8818H77.9951C82.7217 31.8818 86.5498 35.7295 86.5498 40.4365V56.7451C86.5498 61.5107 82.7217 65.3389 77.9951 65.3389ZM9.49902 65.3389C6.62793 65.3389 4.28418 62.9951 4.28418 60.124C4.28418 57.2529 6.62793 54.9092 9.49902 54.9092H26.8232C27.624 54.9092 28.2881 55.5732 28.2881 56.374C28.2881 57.1748 27.624 57.8389 26.8232 57.8389H9.49902C8.24902 57.8389 7.21387 58.8545 7.21387 60.124C7.21387 61.374 8.22949 62.4092 9.49902 62.4092C10.2998 62.4092 10.9639 63.0732 10.9639 63.874C10.9639 64.6748 10.2998 65.3389 9.49902 65.3389Z" fill="#070707"/>
<path d="M91.2695 88.3622C90.7227 88.3622 90.1953 88.0497 89.9414 87.5224C87.2852 81.9364 87.2852 76.2919 89.9414 70.7255C90.293 70.0029 91.1719 69.6904 91.8945 70.0419C92.6172 70.3935 92.9297 71.2724 92.5781 71.995C90.293 76.7802 90.293 81.4482 92.5781 86.2724C92.9297 86.995 92.6172 87.8739 91.875 88.2255C91.6992 88.3232 91.4844 88.3622 91.2695 88.3622Z" fill="#070707"/>
</g>
<defs>
<clipPath id="clip0_65_341">
<rect width="100" height="100" fill="white"/>
</clipPath>
</defs>
</svg>
