<svg width="100" height="100" viewBox="0 0 100 100" fill="none" xmlns="http://www.w3.org/2000/svg">
<g clip-path="url(#clip0_64_118)">
<path d="M79.6875 47.9062C79.2731 47.9062 78.8757 48.0709 78.5826 48.3639C78.2896 48.6569 78.125 49.0543 78.125 49.4688V92.1875C78.1236 93.4303 77.6293 94.6218 76.7506 95.5006C75.8718 96.3793 74.6803 96.8736 73.4375 96.875H7.8125C6.56972 96.8736 5.37823 96.3793 4.49944 95.5006C3.62066 94.6218 3.12636 93.4303 3.125 92.1875V7.8125C3.12636 6.56972 3.62066 5.37823 4.49944 4.49944C5.37823 3.62066 6.56972 3.12636 7.8125 3.125H73.4375C74.6803 3.12636 75.8718 3.62066 76.7506 4.49944C77.6293 5.37823 78.1236 6.56972 78.125 7.8125V19.2812C78.125 19.6957 78.2896 20.0931 78.5826 20.3861C78.8757 20.6791 79.2731 20.8438 79.6875 20.8438C80.1019 20.8438 80.4993 20.6791 80.7924 20.3861C81.0854 20.0931 81.25 19.6957 81.25 19.2812V7.8125C81.2476 5.74125 80.4237 3.75552 78.9591 2.29092C77.4945 0.826324 75.5088 0.00243977 73.4375 0L7.8125 0C5.74125 0.00243977 3.75552 0.826324 2.29092 2.29092C0.826324 3.75552 0.00243977 5.74125 0 7.8125L0 92.1875C0.00243977 94.2588 0.826324 96.2445 2.29092 97.7091C3.75552 99.1737 5.74125 99.9976 7.8125 100H73.4375C75.5088 99.9976 77.4945 99.1737 78.9591 97.7091C80.4237 96.2445 81.2476 94.2588 81.25 92.1875V49.4688C81.25 49.0543 81.0854 48.6569 80.7924 48.3639C80.4993 48.0709 80.1019 47.9062 79.6875 47.9062Z" fill="#070707"/>
<path d="M73.4375 27.0938C73.8519 27.0938 74.2493 26.9291 74.5424 26.6361C74.8354 26.3431 75 25.9457 75 25.5312V10.9375C75 10.5231 74.8354 10.1257 74.5424 9.83265C74.2493 9.53962 73.8519 9.375 73.4375 9.375H7.8125C7.3981 9.375 7.00067 9.53962 6.70765 9.83265C6.41462 10.1257 6.25 10.5231 6.25 10.9375V82.8125C6.25 83.2269 6.41462 83.6243 6.70765 83.9174C7.00067 84.2104 7.3981 84.375 7.8125 84.375H73.4375C73.8519 84.375 74.2493 84.2104 74.5424 83.9174C74.8354 83.6243 75 83.2269 75 82.8125V55.7031C75 55.2887 74.8354 54.8913 74.5424 54.5983C74.2493 54.3052 73.8519 54.1406 73.4375 54.1406C73.0231 54.1406 72.6257 54.3052 72.3326 54.5983C72.0396 54.8913 71.875 55.2887 71.875 55.7031V81.25H9.375V12.5H71.875V25.5312C71.875 25.9457 72.0396 26.3431 72.3326 26.6361C72.6257 26.9291 73.0231 27.0938 73.4375 27.0938Z" fill="#070707"/>
<path d="M43.75 7.8125C44.1644 7.8125 44.5618 7.64788 44.8549 7.35485C45.1479 7.06183 45.3125 6.6644 45.3125 6.25C45.3125 5.8356 45.1479 5.43817 44.8549 5.14515C44.5618 4.85212 44.1644 4.6875 43.75 4.6875H37.5C37.0856 4.6875 36.6882 4.85212 36.3951 5.14515C36.1021 5.43817 35.9375 5.8356 35.9375 6.25C35.9375 6.6644 36.1021 7.06183 36.3951 7.35485C36.6882 7.64788 37.0856 7.8125 37.5 7.8125H43.75Z" fill="#070707"/>
<path d="M35.9375 90.625C35.9375 91.5521 36.2124 92.4584 36.7275 93.2292C37.2426 94.0001 37.9746 94.6009 38.8312 94.9557C39.6877 95.3105 40.6302 95.4033 41.5395 95.2224C42.4488 95.0416 43.284 94.5951 43.9396 93.9396C44.5951 93.284 45.0416 92.4488 45.2224 91.5395C45.4033 90.6302 45.3105 89.6877 44.9557 88.8312C44.6009 87.9746 44.0001 87.2426 43.2292 86.7275C42.4584 86.2124 41.5521 85.9375 40.625 85.9375C39.3822 85.9389 38.1907 86.4332 37.3119 87.3119C36.4332 88.1907 35.9389 89.3822 35.9375 90.625ZM42.1875 90.625C42.1875 90.934 42.0959 91.2361 41.9242 91.4931C41.7525 91.75 41.5085 91.9503 41.2229 92.0686C40.9374 92.1868 40.6233 92.2178 40.3202 92.1575C40.0171 92.0972 39.7387 91.9484 39.5201 91.7299C39.3016 91.5113 39.1528 91.2329 39.0925 90.9298C39.0322 90.6267 39.0632 90.3126 39.1814 90.0271C39.2997 89.7415 39.5 89.4975 39.7569 89.3258C40.0139 89.1541 40.316 89.0625 40.625 89.0625C41.0393 89.0629 41.4365 89.2276 41.7294 89.5206C42.0224 89.8135 42.1871 90.2107 42.1875 90.625Z" fill="#070707"/>
<path d="M98.2475 15.8142C97.1247 14.6944 95.6037 14.0656 94.0179 14.0656C92.4321 14.0656 90.911 14.6944 89.7882 15.8142L45.7704 59.8328C45.5522 60.0508 45.4035 60.3284 45.343 60.6308L43.7805 68.4433C43.7351 68.67 43.7406 68.9039 43.7966 69.1283C43.8526 69.3526 43.9576 69.5617 44.1042 69.7405C44.2507 69.9193 44.4351 70.0634 44.6441 70.1623C44.853 70.2612 45.0814 70.3125 45.3126 70.3125C45.4156 70.312 45.5183 70.3015 45.6193 70.2813L53.4318 68.7188C53.734 68.658 54.0116 68.5093 54.2297 68.2914L98.2475 24.2738C98.8032 23.7184 99.2439 23.059 99.5446 22.3332C99.8453 21.6075 100 20.8296 100 20.044C100 19.2584 99.8453 18.4805 99.5446 17.7548C99.2439 17.029 98.8032 16.3696 98.2475 15.8142ZM96.0382 22.0642L52.3544 65.7486L47.3046 66.7588L48.3147 61.7081L91.9976 18.0238C92.2629 17.7585 92.5778 17.548 92.9244 17.4044C93.2711 17.2608 93.6426 17.1869 94.0178 17.1869C94.393 17.1869 94.7645 17.2608 95.1112 17.4044C95.4578 17.5479 95.7728 17.7584 96.0381 18.0237C96.3034 18.289 96.5139 18.604 96.6575 18.9506C96.801 19.2972 96.875 19.6687 96.875 20.0439C96.875 20.4191 96.8011 20.7907 96.6575 21.1373C96.5139 21.484 96.3035 21.7989 96.0382 22.0642Z" fill="#070707"/>
</g>
<defs>
<clipPath id="clip0_64_118">
<rect width="100" height="100" fill="white"/>
</clipPath>
</defs>
</svg>
