<svg width="100" height="100" viewBox="0 0 100 100" fill="none" xmlns="http://www.w3.org/2000/svg">
<g clip-path="url(#clip0_64_27)">
<path d="M50.0391 93.9844H37.9297C36.875 93.9844 36.0156 93.125 36.0156 92.0703V79.707C33.4375 79.0235 30.957 77.9883 28.6328 76.6406L19.8828 85.3906C19.1406 86.1328 17.9102 86.1328 17.168 85.3906L8.59375 76.8164C7.85156 76.0742 7.85156 74.8438 8.59375 74.1016L17.3438 65.3516C15.9961 63.0274 14.9805 60.5469 14.2773 57.9688H1.91406C0.859375 57.9688 0 57.1094 0 56.0547V43.9453C0 42.8906 0.859375 42.0313 1.91406 42.0313H14.2773C14.9609 39.4531 15.9961 36.9727 17.3438 34.6484L8.59375 25.8984C7.85156 25.1563 7.85156 23.9258 8.59375 23.1836L17.1484 14.6289C17.8906 13.8867 19.1211 13.8867 19.8633 14.6289L28.6133 23.3789C30.9375 22.0313 33.418 21.0156 35.9961 20.3125V7.92969C35.9961 6.875 36.8555 6.01562 37.9102 6.01562H50.0195C51.0742 6.01562 51.9336 6.875 51.9336 7.92969V92.0703C51.9727 93.125 51.1133 93.9844 50.0391 93.9844ZM39.8633 90.1367H48.125V9.86328H39.8633V21.8164C39.8633 22.7148 39.2383 23.4961 38.3398 23.6914C35.1562 24.375 32.1094 25.625 29.375 27.4023C28.6133 27.8906 27.6172 27.793 26.9727 27.1484L18.5352 18.6914L12.6953 24.5313L21.1523 32.9883C21.7969 33.6328 21.8945 34.6289 21.4062 35.3906C19.6289 38.125 18.3789 41.1523 17.6953 44.3359C17.5 45.2148 16.7188 45.8594 15.8203 45.8594H3.84766V54.1211H15.8008C16.6992 54.1211 17.4805 54.7461 17.6758 55.625C18.3594 58.8086 19.6094 61.8555 21.3867 64.5899C21.875 65.3516 21.7773 66.3477 21.1328 66.9922L12.6953 75.4688L18.5352 81.3086L26.9922 72.8516C27.6367 72.207 28.6328 72.1094 29.3945 72.5977C32.1289 74.375 35.1562 75.625 38.3398 76.3086C39.2188 76.5039 39.8633 77.2852 39.8633 78.1836V90.1367Z" fill="#070707"/>
<path d="M44.1992 70.8594C32.6953 70.8594 23.3398 61.5039 23.3398 50C23.3398 38.4961 32.6953 29.1406 44.1992 29.1406C46.3867 29.1406 48.5547 29.4922 50.6445 30.1562C51.4453 30.4102 51.9727 31.1523 51.9727 31.9922V68.0078C51.9727 68.8477 51.4258 69.5703 50.6445 69.8242C48.5547 70.5078 46.3867 70.8594 44.1992 70.8594ZM44.1992 32.9883C34.8242 32.9883 27.1875 40.625 27.1875 50C27.1875 59.375 34.8242 67.0117 44.1992 67.0117C45.5273 67.0117 46.8359 66.8555 48.125 66.5625V33.457C46.8359 33.1445 45.5273 32.9883 44.1992 32.9883Z" fill="#070707"/>
<path d="M90.2539 51.9336H50.0391C48.9844 51.9336 48.125 51.0742 48.125 50.0195C48.125 48.9648 48.9844 48.1055 50.0391 48.1055H90.2539C91.3086 48.1055 92.168 48.9648 92.168 50.0195C92.1875 51.0742 91.3281 51.9336 90.2539 51.9336Z" fill="#070707"/>
<path d="M68.0469 26.6992H50.0391C48.9844 26.6992 48.125 25.8398 48.125 24.7852C48.125 23.7305 48.9844 22.8711 50.0391 22.8711H66.1133V9.72656C66.1133 8.67187 66.9727 7.8125 68.0273 7.8125C69.082 7.8125 69.9414 8.67187 69.9414 9.72656V24.7656C69.9609 25.8398 69.1016 26.6992 68.0469 26.6992Z" fill="#070707"/>
<path d="M68.0469 92.1875C66.9922 92.1875 66.1328 91.3281 66.1328 90.2734V77.1875H50.0586C49.0039 77.1875 48.1445 76.3281 48.1445 75.2734C48.1445 74.2187 49.0039 73.3594 50.0586 73.3594H68.0664C69.1211 73.3594 69.9805 74.2187 69.9805 75.2734V90.2734C69.9609 91.3281 69.1016 92.1875 68.0469 92.1875Z" fill="#070707"/>
<path d="M68.0469 11.6602C64.8242 11.6602 62.2266 9.04297 62.2266 5.83984C62.2266 2.63672 64.8242 0 68.0469 0C71.2695 0 73.8672 2.61719 73.8672 5.82031C73.8672 9.04297 71.2695 11.6602 68.0469 11.6602ZM68.0469 3.84766C66.9531 3.84766 66.0547 4.72656 66.0547 5.83984C66.0547 6.95312 66.9531 7.8125 68.0469 7.8125C69.1406 7.8125 70.0391 6.93359 70.0391 5.82031C70.0195 4.72656 69.1406 3.84766 68.0469 3.84766Z" fill="#070707"/>
<path d="M50.0391 39.3164C48.9844 39.3164 48.125 38.457 48.125 37.4023C48.125 36.3476 48.9844 35.4883 50.0391 35.4883H78.7305L90.1562 24.0625C90.8984 23.3008 92.1094 23.2812 92.8711 24.0234C93.6328 24.7656 93.6523 25.9765 92.9102 26.7383C92.8906 26.7578 92.8906 26.7578 92.8711 26.7773L80.8789 38.7695C80.5273 39.1211 80.0391 39.3359 79.5117 39.3359L50.0391 39.3164Z" fill="#070707"/>
<path d="M94.1602 28.5937C90.9375 28.5937 88.3398 25.9766 88.3398 22.7539C88.3398 19.5313 90.957 16.9336 94.1797 16.9336C97.4023 16.9336 100 19.5508 100 22.7734C100 24.3164 99.375 25.8008 98.2813 26.8945C97.207 27.9883 95.7227 28.5937 94.1602 28.5937ZM94.1602 20.7813C93.0664 20.7813 92.168 21.6602 92.168 22.7734C92.168 23.8672 93.0469 24.7656 94.1602 24.7656C95.2539 24.7656 96.1523 23.8867 96.1523 22.7734C96.1523 22.2461 95.9375 21.7383 95.5664 21.3672C95.1953 20.9961 94.6875 20.7813 94.1602 20.7813Z" fill="#070707"/>
<path d="M68.0469 100C64.8242 100 62.2266 97.3828 62.2266 94.1797C62.2266 90.9766 64.8437 88.3594 68.0469 88.3594C71.2695 88.3594 73.8672 90.9766 73.8672 94.1797C73.8672 97.3828 71.2695 100 68.0469 100ZM68.0469 92.1875C66.9531 92.1875 66.0547 93.0664 66.0547 94.1797C66.0547 95.293 66.9336 96.1719 68.0469 96.1719C69.1406 96.1719 70.0391 95.293 70.0391 94.1797C70.0391 93.0664 69.1406 92.1875 68.0469 92.1875Z" fill="#070707"/>
<path d="M91.4063 76.543C90.8984 76.543 90.4102 76.3477 90.0391 75.9766L78.6133 64.5508H50.0391C48.9844 64.5508 48.125 63.6914 48.125 62.6367C48.125 61.582 48.9844 60.7227 50.0391 60.7227H79.4141C79.9219 60.7227 80.4102 60.918 80.7813 61.2891L92.7734 73.2813C93.5156 74.0234 93.5156 75.2539 92.7734 75.9961C92.4024 76.3477 91.9141 76.543 91.4063 76.543Z" fill="#070707"/>
<path d="M94.1602 83.2031C90.9375 83.2031 88.3398 80.5859 88.3398 77.3828C88.3398 74.1602 90.957 71.5625 94.1602 71.5625C95.7031 71.5625 97.1875 72.168 98.2813 73.2617C100.566 75.5273 100.566 79.2187 98.2813 81.5039C97.207 82.5977 95.7227 83.2031 94.1602 83.2031ZM94.1602 75.3906C93.0664 75.3906 92.1875 76.2891 92.1875 77.3828C92.1875 78.4766 93.0859 79.3555 94.1797 79.3555C95.2734 79.3555 96.1523 78.457 96.1523 77.3633C96.1523 76.8359 95.9375 76.3281 95.5664 75.957C95.1953 75.6055 94.6875 75.3906 94.1602 75.3906Z" fill="#070707"/>
<path d="M94.1602 55.8398C90.9375 55.8398 88.3398 53.2227 88.3398 50.0195C88.3398 46.8164 90.957 44.1992 94.1602 44.1992C97.3828 44.1992 99.9805 46.8164 99.9805 50.0195C100 53.2227 97.3828 55.8398 94.1602 55.8398ZM94.1602 48.0273C93.0664 48.0273 92.168 48.9063 92.168 50.0195C92.168 51.1133 93.0469 52.0117 94.1602 52.0117C95.2539 52.0117 96.1523 51.1328 96.1523 50.0195C96.1523 48.9258 95.2734 48.0273 94.1602 48.0273Z" fill="#070707"/>
</g>
<defs>
<clipPath id="clip0_64_27">
<rect width="100" height="100" fill="white"/>
</clipPath>
</defs>
</svg>
