<svg width="100" height="100" viewBox="0 0 100 100" fill="none" xmlns="http://www.w3.org/2000/svg">
<path d="M97.9297 6.26953H2.07031C0.9375 6.26953 0 7.20703 0 8.35938V73.7695C0 74.9219 0.9375 75.8398 2.07031 75.8398H41.2891V82.0508H35.6641C34.5117 82.0508 33.5937 82.9883 33.5937 84.1211C33.5937 85.2734 34.5312 86.1914 35.6641 86.1914H64.2969C65.4492 86.1914 66.3672 85.2539 66.3672 84.1211C66.3672 82.9688 65.4297 82.0508 64.2969 82.0508H58.6719V75.8398H69.3359V89.9805C69.3359 92.0313 71.0156 93.7109 73.0664 93.7109H86.8359C88.8867 93.7109 90.5664 92.0313 90.5664 89.9805V75.8398H97.8711C99.0234 75.8398 99.9414 74.9024 99.9414 73.7695V8.35938C100 7.20703 99.0625 6.28906 97.9297 6.26953ZM54.5508 75.8398V82.0508H45.4492V75.8398H54.5508ZM69.375 67.9297V71.6797H4.16016V67.9102H69.375V67.9297ZM95.8594 67.9297V71.6797H90.625V67.9102H95.8594V67.9297ZM86.4844 89.5703H73.5351V57.9492H86.4844V89.5703ZM86.8945 53.8086H73.1055C71.0547 53.8086 69.375 55.4883 69.375 57.5391V63.7695H4.16016V10.4297H95.8594V63.7695H90.625V57.5391C90.625 55.4883 88.9453 53.8086 86.8945 53.8086Z" fill="#070707"/>
<path d="M80 75.2344C77.1484 75.2344 74.8242 77.5586 74.8242 80.4102C74.8242 83.2617 77.1484 85.5859 80 85.5859C82.8516 85.5859 85.1758 83.2617 85.1758 80.4102C85.1758 77.5586 82.8516 75.2344 80 75.2344ZM80 82.6758C78.75 82.6758 77.7344 81.6602 77.7344 80.4102C77.7344 79.1602 78.75 78.1445 80 78.1445C81.25 78.1445 82.2656 79.1602 82.2656 80.4102C82.2656 81.6602 81.25 82.6758 80 82.6758Z" fill="#070707"/>
<path d="M76.2695 64.8437H77.4414C78.2422 64.8437 78.8867 64.1992 78.8867 63.3984C78.8867 62.5977 78.2422 61.9531 77.4414 61.9531H76.2695C75.4687 61.9531 74.8242 62.5977 74.8242 63.3984C74.8242 64.1992 75.4687 64.8437 76.2695 64.8437Z" fill="#070707"/>
<path d="M83.7109 61.9336H82.5391C81.7383 61.9336 81.0938 62.5781 81.0938 63.3789C81.0938 64.1797 81.7383 64.8242 82.5391 64.8242H83.7109C84.5117 64.8242 85.1562 64.1797 85.1562 63.3789C85.1758 62.5977 84.5117 61.9336 83.7109 61.9336Z" fill="#070707"/>
<path d="M76.2695 71.4844H77.4414C78.2422 71.4844 78.8867 70.8398 78.8867 70.0391C78.8867 69.2383 78.2422 68.5938 77.4414 68.5938H76.2695C75.4687 68.5938 74.8242 69.2383 74.8242 70.0391C74.8242 70.8398 75.4687 71.4844 76.2695 71.4844Z" fill="#070707"/>
<path d="M83.7109 68.5938H82.5391C81.7383 68.5938 81.0938 69.2383 81.0938 70.0391C81.0938 70.8398 81.7383 71.4844 82.5391 71.4844H83.7109C84.5117 71.4844 85.1562 70.8398 85.1562 70.0391C85.1562 69.2383 84.5117 68.5938 83.7109 68.5938Z" fill="#070707"/>
</svg>
