<svg width="100" height="100" viewBox="0 0 100 100" fill="none" xmlns="http://www.w3.org/2000/svg">
<g clip-path="url(#clip0_65_380)">
<path d="M62.4648 65.9363C62.4648 65.8768 62.4847 65.7677 62.5244 65.6082L68.0724 47.4129C68.2311 46.9155 68.5943 46.5325 69.1612 46.2639C69.728 45.9954 70.3788 45.8611 71.1151 45.8611C71.8505 45.8611 72.5021 45.9954 73.0689 46.2639C73.6358 46.5325 73.9982 46.9155 74.1577 47.4129L79.7355 65.6082C79.7752 65.7677 79.7958 65.8768 79.7958 65.9363C79.7958 66.4536 79.4723 66.9014 78.8261 67.2791C78.1799 67.6567 77.5085 67.8452 76.8127 67.8452C75.9574 67.8452 75.4501 67.5576 75.2914 66.9808L74.2774 63.2523H67.9832L66.9692 66.9808C66.8098 67.5576 66.3024 67.8452 65.4479 67.8452C64.7514 67.8452 64.08 67.6567 63.4338 67.2791C62.7876 66.9014 62.4648 66.4536 62.4648 65.9363ZM68.9376 59.6726H73.2925L71.1151 51.6785L68.9376 59.6726Z" fill="#070707"/>
<path d="M85.7979 34.7321H65.8554V24.9443C65.8554 17.1135 59.4849 10.7422 51.6533 10.7422H14.2021C6.37131 10.7422 0 17.1135 0 24.9443V41.6176C0 49.3416 6.19736 55.645 13.8817 55.8167C13.8306 57.4364 13.6497 59.2407 13.3408 61.2061C13.1317 62.5328 13.6253 63.8367 14.6599 64.6942C15.3542 65.2695 16.2003 65.5685 17.0647 65.5685C17.495 65.5685 17.9298 65.4938 18.3533 65.3427C21.1685 64.3364 26.0658 61.7912 28.5912 55.8197H42.6659V65.6082C42.6659 73.439 49.0372 79.8103 56.868 79.8103H71.4088C73.9349 85.7819 78.8315 88.3263 81.6475 89.3333C82.0702 89.4844 82.505 89.5584 82.9353 89.5584C83.7997 89.5584 84.6458 89.2593 85.3401 88.6841C86.3754 87.8273 86.8683 86.5227 86.6592 85.1959C86.3503 83.2314 86.1694 81.4262 86.1183 79.8065C93.8026 79.6356 100 73.3322 100 65.6082V48.9349C100 41.1034 93.6287 34.7321 85.7979 34.7321ZM96.0938 65.6075C96.0938 71.2853 91.4749 75.9041 85.7979 75.9041H84.169C83.1192 75.9041 82.2571 76.7342 82.2174 77.784C82.1327 80.0392 82.3174 82.6622 82.7667 85.5835C79.9232 84.5238 76.2764 82.2212 74.6094 77.2377C74.3431 76.4412 73.597 75.9041 72.7577 75.9041H56.868C51.1909 75.9041 46.5721 71.2853 46.5721 65.6075V53.8689C46.5721 53.8681 46.5721 53.8673 46.5721 53.8666C46.5721 53.8658 46.5721 53.8651 46.5721 53.8643V48.9342C46.5721 47.1832 47.0192 45.4544 47.8645 43.9354C48.3894 42.9924 48.0507 41.8037 47.1077 41.2788C46.1655 40.7539 44.976 41.0934 44.4511 42.0357C43.2831 44.1345 42.6659 46.5195 42.6659 48.9342V51.9135H27.2423C26.4023 51.9135 25.6561 52.4506 25.3899 53.2471C23.7236 58.2306 20.0768 60.5339 17.2333 61.5929C17.6819 58.6716 17.8665 56.0486 17.7826 53.7933C17.7429 52.7435 16.8808 51.9135 15.8302 51.9135H14.2021C8.52509 51.9135 3.90625 47.2946 3.90625 41.6176V24.9443C3.90625 19.2673 8.52509 14.6484 14.2021 14.6484H51.6533C57.3303 14.6484 61.9492 19.2673 61.9492 24.9443V34.7328H59.1797C58.1009 34.7328 57.2266 35.6071 57.2266 36.6859C57.2266 37.7647 58.1009 38.6391 59.1797 38.6391H85.7979C91.4749 38.6391 96.0938 43.2579 96.0938 48.9349V65.6075Z" fill="#070707"/>
<path d="M40.5472 26.8525C41.626 26.8525 42.5003 25.9782 42.5003 24.8994C42.5003 23.8206 41.626 22.9463 40.5472 22.9463H33.0963V20.0234C33.0963 18.9446 32.222 18.0703 31.1432 18.0703C30.0652 18.0703 29.1901 18.9446 29.1901 20.0234V22.9463H21.74C20.6612 22.9463 19.7869 23.8206 19.7869 24.8994C19.7869 25.9782 20.6612 26.8525 21.74 26.8525H34.6855C34.3155 28.4783 33.4023 31.1036 31.1516 34.06C30.0682 32.6371 29.3061 31.3104 28.7728 30.1675C28.3165 29.1902 27.1538 28.7675 26.1765 29.2245C25.1992 29.6807 24.7765 30.8427 25.2327 31.82C25.9392 33.3329 26.9814 35.119 28.5103 37.0187C26.6327 38.836 24.2081 40.6915 21.0739 42.4516C20.1332 42.9795 19.7991 44.1697 20.327 45.1104C20.6848 45.749 21.3486 46.1076 22.0322 46.1076C22.3557 46.1076 22.6837 46.0275 22.9859 45.8573C26.3848 43.9492 29.0543 41.9175 31.1524 39.8995C33.2329 41.9045 35.8948 43.9462 39.3006 45.8573C39.6035 46.0275 39.9315 46.1076 40.255 46.1076C40.9378 46.1076 41.6016 45.749 41.9602 45.1104C42.4881 44.1697 42.1532 42.9795 41.2133 42.4516C38.076 40.6907 35.6591 38.8299 33.7929 37.021C37.1735 32.8149 38.2927 28.9773 38.6612 26.8525H40.5472Z" fill="#070707"/>
<path d="M51.3153 36.0625H51.3107C50.2327 36.0625 49.3599 36.9368 49.3599 38.0156C49.3599 39.0944 50.2372 39.9688 51.3153 39.9688C52.3941 39.9688 53.2684 39.0944 53.2684 38.0156C53.2684 36.9368 52.3941 36.0625 51.3153 36.0625Z" fill="#070707"/>
</g>
<defs>
<clipPath id="clip0_65_380">
<rect width="100" height="100" fill="white"/>
</clipPath>
</defs>
</svg>
